<svg xmlns="http://www.w3.org/2000/svg" width="81.667" height="58.333" viewBox="0 0 81.667 58.333"><path fill="#126B2C" d="M7.043 9.949c.306-.642.75-1.108 1.523-1.053 4.138.297 8.276.623 12.271 1.852.752.231 1.474.582 2.176.945.821.424 1.141 1.126.937 2.05-.051.233-.056.475-.093.811h.691c3.334 0 6.667.011 10.001-.016a1.97 1.97 0 001.074-.366c2.115-1.544 4.397-2.516 7.083-2.232 1.666.176 3.205.763 4.733 1.41 2.354.996 4.724 1.955 7.088 2.927.201.083.412.142.628.216.004-1.302.215-1.599 1.427-2.067 3.779-1.457 7.722-2.148 11.736-2.481 1.56-.129 3.13-.138 4.694-.237.864-.055 1.497.24 1.885 1.024v26.24c-.388.784-1.031 1.047-1.886 1.037-2.471-.027-4.943-.009-7.415-.009-1.407 0-1.699-.22-2.113-1.578-.063-.208-.14-.411-.25-.731-.709.479-1.382.915-2.028 1.387-.1.073-.121.308-.114.466.113 2.718-1.609 4.734-4.325 5.092-.252.033-.571.208-.702.416-1.232 1.953-3.025 2.755-5.274 2.613-.339-.021-.508.029-.679.325-1.15 1.988-3.662 3.176-5.696 2.452a.557.557 0 00-.422.059c-1.627 1.019-3.341.932-5.103.451-1.806-.493-3.33-1.49-4.779-2.624-3.491-2.734-7.026-5.416-10.442-8.241-1.71-1.414-3.201-3.095-4.791-4.655-.062-.061-.126-.118-.263-.246-.117.348-.212.647-.317.943-.232.652-.684 1.016-1.389 1.017-2.803.003-5.606-.006-8.409.006-.719.003-1.107-.436-1.457-.962V9.949zm16.521 7.452c-1.295 4.775-2.568 9.452-3.823 14.135-.064.24-.081.624.058.768 1.67 1.732 3.246 3.587 5.095 5.107 4.039 3.321 8.194 6.502 12.366 9.656.832.629 1.936.915 2.942 1.288.383.142.841.084 1.265.117l.139-.25c-1.44-1.394-2.887-2.78-4.317-4.184a29.095 29.095 0 01-1.59-1.686c-.539-.621-.493-1.433.065-1.967.548-.525 1.372-.515 1.968.033.195.179.366.383.554.569 2.146 2.13 4.291 4.261 6.44 6.387.524.519 1.129.538 1.769.242.647-.299 1.099-.776 1.42-1.555-1.836-1.801-3.683-3.605-5.52-5.418a13.16 13.16 0 01-1.12-1.218c-.464-.591-.386-1.362.135-1.863.533-.513 1.341-.529 1.92-.022.215.189.4.412.602.615 2.026 2.032 4.028 4.088 6.089 6.083.923.893 2.27.795 3.197-.094.387-.371.5-.661.025-1.131-2.526-2.5-5.016-5.037-7.506-7.574-.679-.691-.692-1.526-.09-2.113.607-.593 1.42-.543 2.11.15.685.688 1.347 1.401 2.033 2.089 1.917 1.923 3.844 3.837 5.761 5.76.392.393.826.565 1.375.395 1.134-.35 1.662-1.465 1.129-2.521-.266-.526-.601-1.043-1.009-1.464-1.119-1.158-2.232-2.332-3.454-3.375-3.729-3.179-7.505-6.303-11.278-9.43-.15-.124-.481-.136-.685-.07-.69.223-1.346.56-2.044.746-.477.127-.808.353-1.125.718-1.983 2.284-4.429 3.208-7.413 2.409-2.252-.603-3.299-2.331-2.861-4.633.325-1.707 1.12-3.197 2.109-4.593.503-.71 1.069-1.374 1.644-2.106h-8.375zm36.243 19.182c.753-.505 1.458-.998 2.185-1.456.31-.195.328-.389.21-.71-1.686-4.592-3.356-9.19-5.048-13.779a1.016 1.016 0 00-.506-.536c-3.836-1.563-7.682-3.101-11.524-4.65-2.435-.981-4.816-1.077-7.063.486-2.243 1.561-4.295 3.346-5.758 5.681-.587.937-.957 2.019-1.344 3.065-.169.458-.124 1.038.495 1.191.653.162 1.343.322 2.004.279 1.462-.095 2.407-1.065 3.267-2.146.278-.35.618-.738 1.014-.891 1.288-.498 2.623-.869 3.922-1.34.733-.266 1.301-.131 1.873.386a154.384 154.384 0 004.138 3.615c4.137 3.472 8.559 6.619 12.135 10.805zm-1.234-19.882c2.642 6.112 4.785 12.297 6.867 18.505.21.626.243 1.506.678 1.809.469.327 1.313.127 1.994.132 1.297.01 2.594.003 3.929.003V14.57c-4.593.105-9.063.714-13.468 2.131zM9.912 11.816v22.482h6.013c.511-1.692 1.032-3.352 1.514-5.024 1.412-4.893 2.794-9.792 3.587-14.837.099-.632-.17-.762-.625-.901-3.398-1.033-6.906-1.377-10.489-1.72z"/></svg>