<svg xmlns="http://www.w3.org/2000/svg" width="55.333" height="58.333" viewBox="0 0 55.333 58.333"><path fill="#126B2C" d="M51.234 39.399c-1.423-2.836-3.772-4.376-6.943-4.474-2.871-.089-5.747-.022-8.621-.023h-.593c.083-.967.139-1.895.247-2.816.525-4.469 1.829-8.708 3.836-12.73 1.177-2.36 1.544-4.813.897-7.388a10.222 10.222 0 00-8.551-7.646c-.139-.019-.274-.064-.41-.098h-6.86c-.872.219-1.77.368-2.613.67-4.143 1.488-6.837 5.592-6.65 9.997.068 1.604.519 3.085 1.224 4.506 1.508 3.041 2.657 6.212 3.293 9.546.371 1.942.576 3.915.868 5.96h-.648c-2.731 0-5.463.039-8.193-.009-4.337-.076-7.691 3.105-8.162 6.899-.007.057-.053.108-.081.162v5.336h2.858v5.717h43.066v-5.717h2.858v-5.336c-.266-.856-.425-1.766-.822-2.556zM18.673 17.934c-1.232-2.508-1.198-5.001.288-7.391 1.269-2.04 3.157-3.259 5.546-3.399 2.227-.131 4.484-.144 6.703.061 3.632.335 6.462 3.814 6.302 7.452-.047 1.08-.273 2.106-.754 3.069-1.807 3.623-3.146 7.405-3.888 11.434H22.509c-.299-1.219-.566-2.423-.891-3.612-.72-2.637-1.74-5.161-2.945-7.614zm13.752 14.129l-.208 2.816h-9.098l-.213-2.816h9.519zM49.2 44.398h-2.897v5.718H9.017v-5.718H6.025c.123-1.069.108-2.123.384-3.094.614-2.158 2.592-3.537 4.879-3.541 4.397-.009 8.795-.003 13.192-.003h19.336c3.207.001 5.379 2.172 5.382 5.376.002.411.002.821.002 1.262z"/><path fill="#126B2C" d="M6.025 44.398h43.568v2.891H6.025z"/><g fill="#126B2C"><path d="M257.535 18.313c-.764-6.379-6.381-12.014-14.093-11.852-3.233.068-6.468.011-9.702.011h-.926V4.76c-.004-1.62-.382-2.001-1.996-2.001h-19.08c-1.405 0-2.096.452-2.078 1.356.017.885.672 1.307 2.041 1.307l17.464.001h1.014v1.054l.001 27.165c0 .296-.016.596.022.888.092.703.648 1.199 1.305 1.196.668-.003 1.196-.49 1.279-1.209.034-.293.028-.592.028-.888l.001-23.446v-.982c.264-.033.445-.075.626-.075 3.503-.003 7.007-.009 10.51.006.618.003 1.243.044 1.851.149 5.508.953 9.209 5.426 9.226 11.19.021 7.061.005 14.122.003 21.183 0 .261-.044.853-.044.853s-1.499.048-2.231.017c-.885-.011-1.185-.222-1.396-1.063-1.045-4.169-5.742-6.875-9.9-5.776-3.252.859-5.3 2.923-6.219 6.149-.072.252-.314.611-.517.64-.598.086-1.216.031-1.913.031-.979-.029-.827-.017-2.631-.041h-14.016c-1.118-5-5.02-7.086-8.264-6.999-4.546.122-7.259 2.667-8.378 6.975h-2.628V5.424c2.735 0 5.402.003 8.069-.004.193 0 .389-.006.582-.022h.289a1.319 1.319 0 100-2.638h-1.859l-.063.003a1928.26 1928.26 0 00-7.977-.001c-1.318.003-1.783.478-1.784 1.828-.003 12.909-.003 25.818 0 38.727 0 1.387.445 1.811 1.858 1.815 1.18.003 2.36.001 3.519.001 1.016 4.645 4.541 7.05 8.119 7.028 4.627-.029 7.384-2.607 8.537-7.028h.917c5.633 0 11.265.021 16.897-.022.857-.007 1.154.234 1.389 1.07 1.045 3.719 4.44 6.16 8.232 5.987 4.026-.183 6.816-2.553 7.883-6.457.126-.46.32-.596.773-.586 1.212.026 2.426-.02 3.638.019.817.026 1.413-.24 1.758-.999v-25.55c-.048-.095-.124-.185-.136-.282zM207.84 49.531c-3.133-.003-5.68-2.529-5.724-5.677-.044-3.13 2.571-5.756 5.729-5.755a5.717 5.717 0 01-.005 11.432zm35.542.002c-3.13.008-5.713-2.55-5.746-5.687-.032-3.133 2.62-5.776 5.768-5.747 3.152.029 5.702 2.594 5.696 5.729-.006 3.137-2.573 5.698-5.718 5.705z"/><path d="M252.353 20.127c-.077-4.726-3.666-8.294-8.385-8.337-2.263-.021-4.526-.009-6.789-.002-1.256.004-1.687.438-1.689 1.711-.006 3.88-.006 7.759 0 11.639.002 1.302.432 1.716 1.765 1.719 2.209.005 4.418.001 6.628.001 2.263 0 4.526.005 6.789-.002 1.226-.004 1.677-.44 1.685-1.637.01-1.697.024-3.395-.004-5.092zm-2.631 4.036h-11.563V14.57c2.411 0 4.797-.214 7.125.058 2.526.295 4.271 2.608 4.424 5.345.077 1.369.014 2.746.014 4.19z"/></g></svg>