<svg xmlns="http://www.w3.org/2000/svg" width="74.333" height="58.333" viewBox="0 0 74.333 58.333"><g fill="#126B2C"><path d="M69.024 21.646c-.764-6.378-6.382-12.013-14.093-11.852-3.233.068-6.468.011-9.702.011h-.926V8.093c-.004-1.62-.382-2.001-1.996-2.001h-19.08c-1.405 0-2.096.452-2.078 1.356.017.885.672 1.307 2.041 1.307l17.463.001h1.014V9.81l.001 27.165c0 .296-.016.596.022.888.092.703.648 1.199 1.305 1.196.668-.003 1.196-.49 1.279-1.209.034-.293.028-.592.028-.888l.001-23.446v-.982c.264-.033.445-.075.626-.075 3.503-.003 7.007-.009 10.51.006.618.003 1.243.044 1.851.149 5.508.953 9.209 5.426 9.226 11.19.021 7.061.005 14.122.003 21.183 0 .261-.044.853-.044.853s-1.499.048-2.231.017c-.885-.011-1.185-.222-1.396-1.063-1.045-4.169-5.742-6.875-9.9-5.776-3.252.859-5.3 2.923-6.219 6.149-.072.252-.314.611-.517.64-.598.086-1.216.031-1.913.031-.979-.029-.827-.017-2.631-.041H27.652c-1.118-5-5.02-7.086-8.264-6.999-4.546.122-7.259 2.667-8.378 6.975H8.382V8.757c2.735 0 5.402.003 8.069-.004.193 0 .389-.006.582-.022h.289a1.319 1.319 0 100-2.638h-1.859l-.063.003a1928.26 1928.26 0 00-7.977-.001c-1.319.003-1.784.478-1.784 1.828-.003 12.909-.003 25.818 0 38.727 0 1.387.445 1.811 1.858 1.815 1.18.003 2.36.001 3.519.001 1.016 4.645 4.541 7.05 8.119 7.028 4.627-.029 7.384-2.607 8.537-7.028h.917c5.633 0 11.265.021 16.897-.022.857-.007 1.154.234 1.389 1.07 1.045 3.719 4.44 6.16 8.232 5.987 4.027-.183 6.816-2.553 7.883-6.457.126-.46.32-.596.773-.586 1.212.026 2.426-.02 3.638.019.817.026 1.413-.24 1.758-.999v-25.55c-.048-.095-.124-.185-.135-.282zM19.328 52.865c-3.133-.003-5.68-2.529-5.724-5.677-.044-3.13 2.571-5.756 5.729-5.755a5.717 5.717 0 01-.005 11.432zm35.543.002c-3.13.008-5.713-2.55-5.746-5.687-.032-3.133 2.62-5.776 5.768-5.747 3.152.029 5.702 2.594 5.696 5.729-.007 3.136-2.573 5.697-5.718 5.705z"/><path d="M63.842 23.461c-.077-4.726-3.666-8.294-8.385-8.337-2.263-.021-4.526-.009-6.789-.002-1.256.004-1.687.438-1.689 1.711-.006 3.88-.006 7.759 0 11.639.002 1.302.432 1.716 1.765 1.719 2.209.005 4.418.001 6.628.001 2.263 0 4.526.005 6.789-.002 1.226-.004 1.677-.44 1.685-1.637.01-1.698.023-3.395-.004-5.092zm-2.632 4.035H49.647v-9.593c2.411 0 4.797-.214 7.125.058 2.526.295 4.271 2.608 4.424 5.345.077 1.369.014 2.746.014 4.19z"/></g></svg>