<svg version="1.2" xmlns="http://www.w3.org/2000/svg" viewBox="0 0 4096 4313" width="95" height="100"><style/><path d="M1 2387.7c24.9-44.7 63.5-57.9 113.3-56.7 104.9 2.4 209.8.7 318.7.7 0-35.4-.6-67 .1-98.6 1.3-54.6 34.1-91.4 80.2-91.1 46.3.3 78.3 37 79.5 91.9.6 30.6.1 61.2.1 94.8h1375.9c0-30.8-.5-62.2.1-93.7 1-55.4 32-91.8 78.3-93 47.4-1.2 80.5 36.7 81.4 94 .5 30.3.1 60.7.1 93.4h1375.9c0-33.1-.6-64.8.1-96.4 1.3-54.5 34.2-91.4 80.4-91 46.2.4 78.1 37 79.3 92 .7 30.6.1 61.1.1 97.7h83.7c82.7 0 165.3-.2 247.9.1 61.5.2 99.5 30.9 99.7 79.6.3 48.7-37.8 80.2-99.1 80.2-361.1.2-722.3.1-1083.5.1-933 0-1866-.3-2798.9.7-49.7 0-88.4-12-113.3-56.7v-48z"/><path d="M1 1875.8c24.9-44.7 63.6-56.8 113.3-56.7 1182.4.9 2364.8.7 3547.1.7 8 0 16-.2 24 0 54.6 1.8 91.2 34.6 90.5 80.9-.7 46.3-37.2 78.7-92.4 78.8-244 .5-487.9.2-731.8.2h-54.5c0 31.5.5 61.4-.2 91.4-1.2 54.3-34.5 91.3-80.5 90.3-45.1-.9-76.9-35.9-79-88.6-1.2-29.2-.2-58.4-.2-90.3H1361.4c0 29.6.5 58.5-.1 87.4-1.1 54.9-33.4 91.6-79.5 91.5-46.3-.1-78.5-36.4-80.2-91.5-.9-27.9-.2-55.9-.2-90.2H1154c-346.5 0-693.1-.6-1039.7.8-49.7.2-88.4-12.1-113.3-56.7v-48zm2123.6 1275.4c12.3 31.6 22.1 64.4 37.4 94.4 78.4 154.6 71.5 305.9-18.9 452.3-73.5 119.1-114.3 243.6-76 383.6 9.8 35.6 25.9 69.6 40.5 103.8 22.7 53 10.1 99.2-33.8 119.3-42.5 19.5-84.4.6-110.1-50-100.4-198.5-93.6-394.6 13.8-588.3 9-16.3 17.9-32.8 27.8-48.6 63.9-101.7 65-203.2 9.7-310.5-27.4-53.2-40.9-113.6-61.2-172.3-15 19.2-32.4 42.1-50.5 64.4-36.6 45.3-83.4 54.5-121.5 24.2-36.1-28.8-39.2-76.5-5.3-121.1 65.4-85.9 131.2-171.5 198.1-256.2 38.7-48.8 93.5-49.9 132.4-1.4 69.1 86.4 136.6 174.1 203.2 262.4 32.4 42.9 26.8 88.1-10.2 117.2-37.6 29.6-82.6 21.1-118.3-22.8-15-18.3-29.3-37.1-43.9-55.7q-6.6 2.7-13.2 5.3zm854-12.4c-15.6 19.7-34.6 45.2-55.1 69.3-31.8 37.3-74.1 43.8-109.9 18.2-37.4-26.7-47.1-72.3-17.2-112.5 69.1-93 139.8-184.8 212.7-274.8 33.6-41.4 88.1-40.3 121.4 1.2 71.7 89.3 141.5 180.1 210.2 271.8 28.4 37.9 21.4 84.7-11.5 111.2-34.7 28-80.8 22.9-113.7-14.3-19.2-21.6-36.1-45.3-63.2-64.2 7.9 23.8 15.8 47.7 23.5 71.6 22.1 67.8 53 134.3 64.2 203.8 16.6 103.8-19.1 199.7-74.6 287.6-59.1 93.5-96.3 193.8-81.6 305.9 6.3 48.1 23.4 94.9 36.9 141.9 4.4 15.2 13.7 28.8 19.4 43.7 16.6 44 1.3 86.2-37.5 104.9-38.7 18.6-83 3.9-105.4-37.4-51.8-95.4-78.1-197.1-75.9-306.2 2.1-107.9 33.6-206.6 86.5-299.5 16.4-28.9 34.1-57.2 48.5-87.1 34.8-72.2 36.2-146.2 7.1-220.7-27.7-71.1-56.1-141.9-84.8-214.4zm-2052.8-3.2c-16.7 21.1-34.6 45.4-54.1 68.3-34.8 41.1-79.2 48.5-115.9 20.6-36.9-28-42.8-74.3-10.7-117 66.5-88.3 134.1-175.9 203.1-262.2 38.8-48.6 93.9-48.1 132.3.3 67.8 85.6 134.5 172.1 200.3 259.2 33.1 43.8 28 92.3-9.5 120.6-37.9 28.7-82.8 19.4-118.1-24.8-16.2-20.3-32-41-48.1-61.6q-5.2 2.8-10.3 5.6c13.2 34.2 23.5 69.9 40 102.4 78 153.3 70.8 302.7-17.9 448.4-58.6 96.3-104.7 197-88.2 312.2 8.5 59.5 30.2 117.6 50.5 174.7 12.7 36.1 21.4 69-5.6 100.9-37.2 44-101.5 37.4-130.4-15.3-80.7-146.8-102-302.3-51.5-462.5 21-66.4 54-130.1 89-190.8 58.2-101.2 61.4-199.1 8.6-303.7-27.6-54.5-42.4-115.6-63.5-175.3zm1198.8-1974.2c12.3-31.6 22.1-64.4 37.4-94.4 78.4-154.6 71.5-305.9-18.9-452.3-73.5-119.1-114.3-243.5-76-383.6 9.8-35.6 25.9-69.6 40.5-103.8 22.7-53 10.1-99.2-33.8-119.3-42.5-19.5-84.4-.6-110.1 50-100.4 198.5-93.6 394.6 13.8 588.3 9 16.3 17.9 32.8 27.8 48.6 63.9 101.7 65 203.2 9.7 310.5-27.4 53.2-40.9 113.6-61.2 172.3-15-19.2-32.4-42.1-50.5-64.4-36.6-45.3-83.4-54.5-121.5-24.2-36.1 28.8-39.2 76.5-5.3 121.1 65.4 85.9 131.2 171.5 198.1 256.2 38.7 48.8 93.5 49.9 132.4 1.4 69.1-86.4 136.6-174 203.2-262.4 32.4-42.9 26.8-88.1-10.2-117.2-37.6-29.6-82.6-21.1-118.3 22.8-15 18.3-29.3 37.1-43.9 55.7q-6.6-2.7-13.2-5.3zm854 12.4c-15.6-19.7-34.6-45.2-55.1-69.3-31.8-37.3-74.1-43.8-109.9-18.2-37.4 26.7-47.1 72.3-17.2 112.5 69.1 93 139.8 184.8 212.7 274.8 33.6 41.4 88.1 40.3 121.4-1.2 71.7-89.3 141.5-180.1 210.2-271.8 28.4-37.9 21.4-84.7-11.5-111.2-34.7-28-80.8-22.9-113.7 14.3-19.2 21.6-36.1 45.3-63.2 64.2 7.9-23.8 15.8-47.7 23.5-71.6 22.1-67.8 53-134.2 64.2-203.8 16.6-103.8-19.1-199.7-74.6-287.6-59.1-93.5-96.3-193.8-81.6-305.9 6.3-48.1 23.4-94.9 36.9-141.9 4.4-15.2 13.7-28.8 19.4-43.7 16.6-44 1.3-86.2-37.5-104.9-38.7-18.6-83-3.8-105.4 37.5-51.8 95.3-78.1 197-75.9 306.1 2.1 107.9 33.6 206.6 86.5 299.5 16.4 28.9 34.1 57.3 48.5 87.2 34.8 72.1 36.2 146.1 7.1 220.6-27.7 71.1-56.1 141.9-84.8 214.4zM925.8 1177c-16.7-21.1-34.6-45.4-54.1-68.3-34.8-41-79.2-48.5-115.9-20.6-36.9 28-42.8 74.4-10.7 117 66.5 88.3 134.1 175.9 203.1 262.2 38.8 48.6 93.9 48.2 132.3-.3 67.8-85.6 134.5-172.1 200.3-259.2 33.1-43.8 28-92.3-9.5-120.6-37.9-28.7-82.8-19.4-118.1 24.8-16.2 20.3-32 41-48.1 61.6q-5.2-2.8-10.3-5.6c13.2-34.2 23.5-69.9 40-102.4 78-153.3 70.8-302.7-17.9-448.4-58.6-96.3-104.7-196.9-88.2-312.2 8.5-59.5 30.2-117.6 50.5-174.7 12.7-36.1 21.4-69-5.6-100.9-37.2-44-101.5-37.4-130.4 15.3-80.7 146.8-102 302.3-51.5 462.5 21 66.4 54 130.2 89 190.9 58.2 101.1 61.4 199 8.6 303.6-27.6 54.6-42.4 115.6-63.5 175.3zm3092.5 802.1c-41.3 1.2-79.9-35.7-81.1-77.5-1.2-41.4 35.6-80 77.4-81.2 41.4-1.2 80 35.7 81.2 77.5 1.2 41.4-35.6 80-77.5 81.2z"/></svg>