<svg version="1.2" xmlns="http://www.w3.org/2000/svg" viewBox="0 0 3073 3073" width="100" height="100"><style/><path fill-rule="evenodd" d="M2994.4 3072.4H78q-55.9-22.1-78-78V78C14.7 40.7 40.7 14.7 78 0h270c45.9 17.2 69.9 52.9 84.7 97.6 4.7 14.3 12.2 32.9 23.8 38.8 158.1 80 317.3 94.6 483.3 16.9 155.4-72.8 316.8-72.9 473-1.8 151.8 69.2 298.5 70.2 450.4.8 153.9-70.3 313.3-72.3 467.4-2.1 146.2 66.6 288.9 73 437.1 10.3 104.5-44.3 224.4 1.4 277.3 101.1 11.5 21.6 18.4 45.6 27.4 68.4v2664.4q-22.2 55.8-78 78zM306.8 2968.7v-34.8c0-103-.2-206 .1-309 .1-41 18.6-63.6 51.3-63.6 33-.1 50.8 21.6 50.9 63.3.2 104 0 208 0 312v31.3h154.6c0-51.2-.6-100.1.2-149 .5-33.2 21.8-53.8 52.2-53 29.5.8 49.1 22.2 49.6 56.2.6 48.6.1 97.3.1 145.7h2302.8v-202.2h-33.9c-90 0-180 .3-270 0-109.7-.4-188.4-61.6-216-167.5-18.2-69.5-36.6-139-53.7-208.9-3.9-15.8-10.6-21.1-26.7-19.8-46.8 4.1-93.7 6.8-140.6 10.1-126.6 8.9-253.2 18.5-379.9 26.6-32.9 2.1-55.8-19.4-57.2-48.5-1.4-28.8 20.3-50.9 52.9-53.3 116.7-8.4 233.4-16.5 350-25 55.4-4 110.7-8.8 167.9-13.4-2-10.8-3-18.7-4.9-26.3-42-162.4-85.4-324.4-125.5-487.3-13.5-54.7-43.5-87.4-95.4-108.9-265.6-110-530-223.1-795.5-333.4-68.1-28.3-113.7-74-140.2-142.5-44.1-114.6-92-227.7-135.9-342.4-17.7-46-46.9-73.6-94.3-87.1-111.3-32-221.5-67.7-332.9-99.3-77.4-22-127.6-69.6-156.5-143.8C435.1 378.6 388 263 341.7 147.1c-17.9-44.9-17.9-44.9-67.7-44.9H103.4c-.5 10-1.1 15.8-1.1 21.7-.1 283 .2 566.1-.6 849.1-.1 20.1 9.7 27.5 24.1 36.1 151.7 90.8 303.3 181.9 454.7 273.2 32.8 19.7 42.7 48.1 27.5 74.7-15.9 27.9-46.1 32.5-80.8 12.3-20.8-12.1-41.5-24.5-66.3-39.1 0 22.5 1.3 38.5-.2 54.4-2.7 28.8-24.7 49.1-51.1 49.1-28.1 0-49.3-21.2-50.3-52.3-1-30-1.4-60 .1-90 .8-17.4-5.9-26.9-20.4-35.4-71.5-42.1-142.4-85.1-213.6-127.6-6.5-3.9-13.5-6.7-21.6-10.6v1850.9h203zm2661.8-305.4c.7-12.7 1.5-22.4 1.5-32.2.1-748.8-.9-1497.7 1.2-2246.6.3-101.6-90.6-164.9-186.3-122.8-153.8 67.7-312 64.3-465-6-147.6-67.9-291.6-67.6-439.3-.4-160.5 73.1-324.2 72.8-484.6-.6-145.6-66.6-289.1-68.9-433.6-.3-106.4 50.5-218.2 62.7-333.4 46.5-41.7-5.8-82.5-18.4-126.8-28.6 25.6 64.6 50.9 127.2 75.1 190.3 15.9 41.5 44.7 65.9 87.5 78.3 112.2 32.4 223.4 68 335.7 100.1 78.2 22.3 129 70.5 158.1 146.1 44.8 116.5 92.6 231.7 138.2 347.9 14.8 37.6 39.2 62.6 77 78.3 268.9 112.4 537 226.7 806.2 338.3 79.4 33 127.1 87.8 148.3 170.9 71.3 280.6 144.4 560.6 216.9 840.9 18.7 72 54.2 99.7 128.3 99.9 48 .1 96 0 144 0h151z"/><path d="M2557.8 666c-85.3.5-166.4-17.4-243.6-53.8-142.6-67.2-284.8-66-428.2-.5-163.7 74.8-329 74.7-492.9.2-66.6-30.2-134.6-49.4-208.2-48.6-35.5.4-57.4-21-57.1-51.7.2-31.1 21.4-49.6 58-50.2 78.2-1.4 153.8 12.5 223.9 46.7 153.4 74.6 303.7 71.5 458.8.8 153-69.7 311.5-68.3 465.1.5 138.8 62.1 276.4 72.6 418.2 15.2 33-13.4 62.1-2.7 73.2 24.8 11.4 28.3-1.3 54.8-34.1 69.6-74.1 33.4-152 48-233.1 47zm105.8 381.7c-.3-50.7 17.1-75.8 51.6-74.8 33.4.9 50.5 26 50.4 74.3 0 11.9.6 24.1-1.4 35.8-4.7 26.6-27.9 45-52.9 43.5-25.8-1.6-45.4-21.4-47.6-48.8-.7-10-.1-20-.1-30zM1945 1149.9c0 10 .7 20-.1 29.9-2.1 27.6-21.6 47.4-47.4 49.1-24.9 1.7-49.2-16.7-52.9-43.2-2.7-19.7-2.3-39.9-1-59.8 2-30.3 25-51.5 52.5-50.6 27.9 1 47.6 22.4 49.1 53.6.3 7 0 14 0 21h-.2zm-510.7-253.8c0-10-.8-20 .2-29.9 2.8-27.2 23.3-45.7 49.8-46.1 26.6-.3 48.2 17.6 51.1 44.8 1.9 17.7 1.3 35.8.6 53.8-1.2 32.7-22.3 54.1-51.8 53.7-29.7-.5-49-21.7-50.1-55.4-.3-6.9-.1-13.9-.1-20.9h.3zm869.7-.5c0 10 .9 20.1-.2 29.9-3.1 28.4-25.1 47.7-52.4 46.8-26.2-.8-46.6-19.8-48.8-47.2-1.3-16.9-.9-33.9-.3-50.8 1-33.1 21.3-54.4 51-54.2 29.8.1 49.5 21.2 50.9 54.6.3 6.9.1 13.9.1 20.9h-.3zm361 615.8c-2.2 14.6-2.2 30.1-7 43.8-8.4 23.5-27.6 33.6-52.1 30.9-24.6-2.7-40.8-17.1-43.7-41.8-2.3-19.7-1.8-39.9-.9-59.8 1.5-29.8 21.1-49.4 48.6-50.3 26.9-.8 48.7 18.2 52.5 47 1.3 9.8.2 19.9.2 29.9q1.2.1 2.4.3zm150.8 563.2c0 6.9.3 13.9 0 20.9-1.5 33.9-20.6 54.2-50.7 54.3-29.8 0-49.7-20.6-51.4-54.3-.8-15.9-1.1-32 .3-47.8 2.7-31 24-50.6 52.6-49.9 28.8.8 47.4 20.6 49.1 52.9.4 7.9.1 15.9.1 23.9z"/></svg>