<svg version="1.2" xmlns="http://www.w3.org/2000/svg" viewBox="0 0 4100 4098" width="100" height="100"><style/><path d="M1 3992.5c24.9-44.7 63.5-57.9 113.3-56.7 104.9 2.4 209.8.7 318.7.7 0-35.3-.9-67 .2-98.6 1.9-52.9 33.6-86.3 80.2-86.1 46.4.3 77.6 33.8 79.3 87 1 30.5.2 61.1.2 94.7h1375.9c0-30.8-.8-62.2.2-93.7 1.5-53.5 32-87.2 78.3-88 48-.8 79.8 33.5 81.3 89.1.8 30.3.1 60.7.1 93.3h1375.9c0-33.2-.9-64.8.2-96.5 1.9-52.8 33.8-86.2 80.3-85.9 46.4.4 77.5 33.9 79.2 87.1 1 30.6.2 61.1.2 97.6h91.8c80 0 160-.2 239.9.1 61.5.2 99.5 31 99.6 79.7.2 48.7-37.9 80.1-99.2 80.1-385.1.2-770.3.1-1155.5.1-908.9 0-1817.9-.3-2726.8.7-49.7 0-88.4-12-113.3-56.7v-48z"/><path fill-rule="evenodd" d="M688.9 1c48 20.2 81 57 112.3 97.4 127.2 164.1 260.5 323.9 383 491.5 147.7 202 172.6 425.6 68.9 653.3-105.6 231.6-292.1 362.7-547.2 382.7-348.4 27.4-643.2-212-697.7-559.3-.9-6.1-4.7-11.8-7.2-17.7v-144c2.2-4.6 5.8-9.1 6.4-13.9 14.9-119 60.8-224.9 134.2-319.2C266.4 411.1 391.9 251.1 515.7 89.7 545.5 50.8 578.5 18.2 624.9 1h64zm-34.5 170.2c-137 177.7-272.4 348.9-402.6 524-78.9 106-106.4 229.1-82.9 359.5 36.1 200.2 153.5 335.8 347.7 393 201.1 59.2 379.1 6.3 516.1-152.7 132.7-154.1 156.4-332.2 74.3-518.1-27.9-63.4-72.8-120.3-115.5-176-109.2-142.5-221.4-282.7-337.1-429.7zM3472.6 1c46.5 17.3 79.5 50 109.4 89 128.1 167 261.9 329.8 385.9 499.8 146.7 201.1 172.4 423.4 70.3 650.2-105.2 233.7-292.6 366.2-549.6 386-395.5 30.5-720.8-288.3-702.6-684.5 6-129.5 46.9-248.7 126.3-351.8 135.7-176.2 273.3-351.2 412.5-524.8 21.3-26.6 55.5-42.8 83.8-63.9h64zm-33.4 167.1c-4.6 9.8-6 15.4-9.3 19.6-124.1 158.2-248.4 316.2-372.6 474.4-75 95.5-113.6 204.1-112.1 325.5 3.6 286.3 257.1 507 548.4 478.8 367-35.5 568-460.9 357.3-762.9-90.6-129.8-192.1-252-288.7-377.5-38.8-50.2-78-100.1-123-157.9z"/><path d="M1 3488.6c28-51.7 55.5-70.1 94.1-61.4 37.9 8.6 59.6 33.4 64.6 71.5 4.4 33.5-19.5 67.8-53.2 79.9-33.9 12.2-68.8.6-90.4-30.7-5.9-8.5-10.1-18.2-15.1-27.3v-32zm625.2-426.5c-3.4 33.2-3.9 58.5-9 82.8-7.7 37.6-41.4 62-78.4 60.2-37.3-1.7-72.1-28.8-73.2-66.2-2.7-91.8-3-183.8-.1-275.6 1.2-39.5 30.1-64.3 68.5-65.5 89.1-2.7 178.4-3.6 267.4.4 44.9 1.9 73.5 41.1 70.8 81.4-2.7 41.5-33.7 70.5-79.7 74.4-10.5.8-21.1 1-42.9 2 292.8 240.5 617.5 389 982.3 442.5 597.7 87.6 1134.2-59.6 1617.3-440.4-25.2-2.4-40.3-3.2-55.2-5.4-39.4-5.9-68.3-38-69.1-76.2-.7-36.2 24.6-74.5 62.5-76.1 94.2-4.1 188.7-4 282.9-.6 39.2 1.3 62.1 31.4 62.9 70.5 1.9 86.5 2.2 173.2.1 259.8-1.1 43.3-33.1 72.5-73.7 74.9-40 2.4-73.2-24.2-80.8-67-3.9-22.1-4.2-44.8-6.9-75.2-177.6 147.9-368.3 266.2-575.9 361.8h1077.2c9.3 0 18.6-.2 28 0 57.7 1.1 95.2 33.1 94.6 80.7-.5 47.5-37.8 79.1-96.1 79.1-350.5.3-701.1.1-1051.6.2h-51c0 35.6.8 67.2-.2 98.9-1.5 51.2-31.3 84.2-76.1 85.7-46.5 1.6-80.1-31-83.1-83.3-1.8-31.8-.3-63.7-.3-98.5H1361.3c0 31.7.8 63.3-.1 94.8-1.5 53.4-32.3 86.9-78.9 87-46.3.2-78.2-33-80.5-86-1.4-31.6-.3-63.3-.3-98.6H442.7c-9.3 0-18.6.1-27.9-.1-55.5-1.3-92-31.9-93.2-78.2-1.2-47.5 36.4-81.4 93.7-81.5 247.9-.5 495.8-.2 743.7-.2h42.1c-205.4-96.2-396.8-211.4-574.9-362.5z"/><path fill-rule="evenodd" d="M2874.3 2226.7c-1.8 421.3-279.4 761.7-658 837-388.3 77.1-778.1-123.4-927.2-487.1-124.1-302.7-77.9-587.2 122.5-845.3 165.8-213.6 333.7-425.7 501.4-637.8 82.4-104.1 196.5-102.4 278.4 2.7 164.7 211.2 328.4 423.1 493.9 633.6 121.9 155.1 188.4 329 189 496.9zm-824-1051.5c-6.1 8.5-10.5 15.2-15.4 21.4-171 218.1-343.7 435-512.6 654.7-133.6 173.7-170.7 369.5-114.8 581.4 93.5 354.7 468.1 562.9 827.9 461.1 347.9-98.4 554.5-472.5 454.1-818.8-32.7-112.9-97.5-205.6-168.8-296.2-156.5-198.9-311.3-399.2-470.4-603.6z"/><path d="M2432.8 2275.5c-4.2 193.5-185.9 368.2-379.5 364.8-45.4-.9-80.9-32.7-83.7-75.1-2.7-40.1 27-75.4 70.8-83.1 11.7-2.1 23.9-2 35.7-3.7 107.6-14.5 186.1-97.2 196.8-205.1 1.9-19.5 5.8-40 14.5-57.2 16.5-32.4 55.1-45.7 89.1-35 39.4 12.6 57.4 42.8 56.3 94.4z"/></svg>