<svg version="1.2" xmlns="http://www.w3.org/2000/svg" viewBox="0 0 3073 2812" width="109" height="100"><style/><path fill-rule="evenodd" d="M0 1094.2c3.5-9.1 7.4-18.1 10.4-27.3C43.7 967 145 907.3 246.8 927.7c102.9 20.6 175.7 116.5 165.3 221.3-2 20.3 4.2 28 21 35.4 40.7 18.1 80.7 37.9 125.4 59.1V820c0-66.4 11.8-78.9 75.9-92.3 156.9-32.6 310-76.9 451.3-154.9 71-39.1 138.3-84 168.2-163.5 14.4-38.5 22.9-80.9 24.8-121.9 7.1-160 132.4-284.7 292.2-286.5 138.2-1.5 275.8 124.9 276.1 263.8.3 139.6 63.4 235.4 182 299.9 36.8 20 74.5 38.6 112.9 55.2 10.8 4.6 28 4.3 38.2-1.2 154.1-82.4 307.1-166.8 461.3-248.9 22.6-12.1 17.1-27.9 16.7-44.8-2.5-105.6 67.3-193.9 168.9-213.3 96.8-18.5 196 37.1 231.5 129.9 5.3 14 9.3 28.4 13.9 42.6v66c-2.3 6.3-5.1 12.6-6.9 19.1-41 144.8-210.7 200.9-329.4 108.7-5.5-4.2-10.8-8.7-17.6-14.2-132.4 71.9-264.6 143.7-396.8 215.5q-.2 3.7-.3 7.3c59.3 14 118.4 28.7 177.9 41.8 59.7 13.2 70.9 25.8 70.9 87.2q0 310.5-.1 621c0 11 .2 22.1-1.3 32.9-4 28-27.4 48.6-55.4 50.1-26.2 1.4-52.1-15.9-59-41.8-3.5-13.3-4-27.6-4.1-41.5-.2-188-.5-376 .4-564 .1-22.8-5.5-32.1-29.3-38.1-77.4-19.6-153.5-43.7-230.6-64.3-12.8-3.4-30-2.4-41.5 3.7-93.6 49.4-186.1 100.8-279.5 150.7-15 8-21.3 16.9-21.3 34.6.6 292 .6 584 0 876-.1 19.3 7.2 27.7 23.8 35.4 69.8 32.3 138.9 65.9 208.1 99.4 26.1 12.6 39.7 33.9 35.8 63-3.6 26.3-20 44.9-45.9 49.2-14.6 2.4-32-1.1-45.9-7.1-45.7-20-90.4-42.5-135.5-63.9-11.5-5.5-23.2-10.8-38.2-17.7-.7 10.4-1.8 17.8-1.7 25.1 1.5 90.9-.5 182.1 5.8 272.7 5.4 79.5 45.7 143.8 110.2 191.4 122.8 90.8 264.8 137.8 409.7 177.8 22.1 6.2 44.5 11.1 66.9 16.4 1.6.4 3.7-.7 8.6-1.9v-34.7c0-209-.1-418 .1-627 0-13.9.4-28.3 3.6-41.6 6.8-27.7 32.3-44.8 60.7-43.1 28.2 1.8 50.6 22.2 54.4 50.7 1.3 9.9 1.2 20 1.2 30v720c0 72.3-25.7 92.2-97.9 77.3-170.9-35.4-336.6-85.3-490.6-169.8-116.7-64-207.4-149.8-237.9-285.1-8.1-35.8-12.3-72.9-14.5-109.7-5.2-86.9-73.3-155.9-160.7-160.1-78.6-3.8-154.8 61.3-166.8 143.4-6.5 44.4-7.4 90-18 133.3-26 107.2-91 187-183.3 246.1-146.7 94-309.3 147.3-477.1 187.6-26.2 6.3-52.5 12.3-79 17.2-56.6 10.6-85.8-14-85.8-72.1-.2-267-.1-534-.1-801.1 0-177-.3-354 .4-531 .1-20.5-5-31.9-25-40.7-54.8-24.1-108.1-51.6-162.8-76.1-8.6-3.9-24.5-4.1-31 1.3-119.9 99.2-303.1 36.5-335.4-115.9-.5-2.7-3.1-4.9-4.7-7.3v-72zm1728.9 921.7V296.1c0-9 0-18-.7-26.9-7.1-94-110.6-166.8-201.5-141.9-82.1 22.4-127 83.4-127 173.5-.1 560-.1 1120.1-.1 1680.1v34.5c110.8-68.7 218.1-73.1 329.3.5zM680.1 2679.2c33.8-8.7 65.7-16.2 97.2-25.1 130.1-37 257-81.4 369.7-158.7 89-61 133.7-144.7 132.9-253.5-1.1-163.9-.7-327.8.3-491.7.1-22.1-6.2-33.3-26.6-42.9-181.4-85.5-362.2-172.2-543.3-258.4-9.5-4.6-19.6-8-30.2-12.2v1242.5zm598-2092.5c-28.4 20.7-53.1 40.5-79.5 57.7-150.5 98-319 150.2-491.8 190.5-21.7 5.1-29 12-28.8 34.7 1.1 135 1 270 0 405-.1 19.9 5.9 29.6 24.2 38.1 154.5 72.6 308.4 146.4 462.6 219.8 36.7 17.5 73.5 34.9 113 53.7v-339.7c-48.4 26.2-93.5 50.8-138.9 75-38.7 20.6-73.5 13.1-90.6-19.1-17.2-32.2-4.5-65.5 33.7-86.5 56-30.8 112-61.9 168.8-91.1 20.9-10.7 29.7-23 29.5-47.9-1.4-153-.6-306-.7-459 0-9.5-.9-19-1.5-31.2zm1674.2-271.9c-.5-48.1-40.2-86.3-89-85.6-47.5.7-85 38.6-85.2 86.1-.2 48.1 39.5 88.3 87.1 88.1 47.3-.2 87.6-41.2 87.1-88.6zm-2745.2 730c-47.6-.1-86.3 37.7-86.9 84.8-.5 46.9 37.7 86.5 84.8 87.6 47.7 1.1 88.8-39.2 88.6-86.9-.2-46.8-39.2-85.3-86.5-85.5zm1643.2-246.4c61.2-33.2 118.2-64.1 173.9-94.4-59.1-39-116.1-76.4-173.9-114.4v208.8z"/></svg>