<svg version="1.2" xmlns="http://www.w3.org/2000/svg" viewBox="0 0 3074 3073" width="100" height="100"><style/><path fill-rule="evenodd" d="M1345 3072.8c-58.8-20.8-103.9-55.1-116.5-120.2-2.7-13.6-3.3-27.8-3.3-41.7-.1-417.1-.1-834.1-.1-1251.2 0-7-.4-14 .4-20.9 3-25.5 22.5-43.6 46.2-41.8 25.4 1.9 40 16.7 43 41.9 1.2 9.9.4 20 .4 30V2902c0 62.5 18.1 80.7 80.1 80.8 64 0 128 .3 192-.1 44.1-.3 66.2-22.1 68.1-66 .4-7 .1-14 .1-21V177.4c0-10 .5-20.1-.6-30-3.9-35.2-25.9-56.4-61.6-56.8-72-.7-144-.8-216 .1-40.2.4-61.9 24.9-62 68.3-.3 139.1-.1 278.1-.1 417.1v831.1c0 10 .9 20.2-.8 29.9-4 23.6-18.6 38.1-42.5 38.8-25.6.8-41.1-13.9-45.8-38.6-1.9-9.7-.9-19.9-.9-29.9 0-407.1 1.4-814.1-1-1221.1C1223.5 93.6 1255 30.1 1345 .4h282c91 31.3 121.4 97.4 119.5 190.3-3.6 167.8-1.1 335.8-1.1 503.8v36.9c9.2-.8 14.9-1 20.6-2 59.8-9.9 109.4-41.1 158.3-74.7 100.7-69.2 211.4-113.1 333.9-120.9 61.1-3.9 122.7-.7 187.1-.7 0-13-.2-29.8 0-46.5 1.2-111.2 93.6-164 190.5-108.7 117 66.8 233.5 134.8 351.2 200.4 40.1 22.3 71.9 49.5 86.2 94.1v48.1c-13.7 45-44.5 74-85.8 94.6-26.7 13.3-52.2 29.4-78.2 44.3-93.6 53.6-186.7 108.1-280.9 160.6-87.9 49-179.1-3.2-182.8-103.5-.9-23-1.6-46.2.2-69 1.8-23.1-5.7-33-29.5-37.9-120.9-24.6-232-1.7-335.2 64.6-36 23.3-71.8 47.4-109.4 67.8-69.2 37.7-144.4 56.6-223.5 62.6v518.7c66.6-7 119.6-37.7 171-73.5 101-70.5 212.4-115.6 335.9-124 62.1-4.2 124.8-.7 190.3-.7 0-13.3-.1-30 0-46.8 1.1-111.4 93.3-164.2 190.5-108.7 118 67.3 235.3 135.9 354 202 39.5 21.9 69.7 49.3 83.4 93v48c-12.7 33.3-30.2 62.2-62.8 80.7-128.6 72.9-256.2 147.6-385.3 219.7-84.5 47.2-174.9-5.2-179.5-102.3-1.2-25.9-1.5-52 .1-77.9 1.1-18.9-6.5-26.3-24.1-30.1-110.2-24.4-214.6-9.3-312.5 46.6-32 18.4-61.8 40.5-93.2 60-81.9 50.9-171.2 80-268.8 87v518.1c6.4-.5 11.2-.7 15.9-1.4 61.3-9 111.6-40.9 161.4-75.1 128.5-88.2 270.8-130.3 426.8-124.2 30.4 1.2 60.7 5.5 94.1 8.6 0-19.2-.2-36 0-52.8 1.3-110.1 92.9-163.8 188.3-109.6 119 67.6 237 136.9 356.6 203.5 39.5 22 69.5 49.5 83 93.3v48c-14.2 44.7-46.3 71.8-86.2 94.1-116.8 65.2-232.5 132.5-348.5 199-100.3 57.4-192.5 4.9-193.2-110.2-.7-100.4-.7-100.4-103.6-104.3q-3-.1-6-.1c-97.1-2.1-185.4 25.6-264.5 81.3-75.9 53.5-156.5 95.9-248.7 113.2-25.1 4.8-50.5 7.9-77.1 12v322.8c.1 63-24.4 112.3-81 143.2-12 6.5-24.9 11.4-37.4 17.1h-282zm402-2159.1c15.6-1.7 27.6-2.6 39.3-4.3 88.3-13 163.7-54.1 236.4-103.8 138.4-94.5 289.2-120.5 451.2-73.3 43.8 12.7 60.5 34.6 61.3 80.4.5 34-.8 68 .5 102 1.3 30.8 20.2 42.6 46.3 27.8q191.7-108.5 382.3-218.8c26.4-15.3 26.3-38.2-.1-53.6-127.1-73.5-254.5-146.5-382.2-218.9-25.2-14.3-43.8-3.8-46.1 24.9-1.7 20.8-.6 41.9-.6 62.9-.2 77-30.8 103.7-106.5 90.7-167-28.8-319.5 7-458.5 102.5-51.4 35.3-104.2 67.1-165.7 81.1-19.2 4.4-38.5 7.8-57.6 11.7v88.7zm-.1 790.4c8.3 0 13.3.3 18.3-.1 6-.4 11.9-1.4 17.8-2.3 88.3-12.7 164.2-52.6 236.8-102.6 139-95.7 290.5-122.8 453.8-75.2 44 12.8 60.7 34.6 61.5 80.1.7 34-.7 68 .6 102 1.2 30.9 20.2 43 45.9 28.5q191.6-108.6 382.3-218.9c26.5-15.3 26.8-38.5.7-53.6-127-73.6-254.5-146.5-382.3-219-26.1-14.8-44.7-3.4-46.6 27.3-1.3 20.9-.3 42-.4 63-.3 74-32.5 101.1-106.2 88.2-165.9-29.2-316.5 8.1-456.7 99.6-47.2 30.8-99.1 55-150.5 78.6-22.8 10.5-49.8 11.8-75 17.3v87.1zm.1 793.3c13.8-1.5 23.7-2.4 33.5-3.8 90.5-12.3 167.9-53.9 242.3-104.7 138.4-94.6 289.2-120.7 451.2-73.2 44 12.9 60.4 34.6 61.2 80.4.5 33-.7 66 .4 99 1.1 34.7 19.8 46.1 49.1 29.5 125.9-71.6 251.6-143.5 377.1-215.9 29.5-17.1 29.5-40 0-57q-188.2-108.6-377.2-215.9c-29.2-16.5-47.8-4.8-49.1 29.7-.9 24.9.3 50-.4 75-1.6 53.2-35.5 81.6-88.8 75.1-34.7-4.3-69.4-10.7-104.2-11.9-135.3-4.7-258.6 33.4-369.6 110.3-53.8 37.2-109.3 70-174 84.2-17.2 3.8-34.6 6.5-51.5 9.6v89.6z"/><path d="M.8 2256.7c3.8-12.3 7.6-24.5 11.2-36.8 32.5-108.6 133.3-184.2 246.3-184.8 113.5-.5 213.8 73.1 248.2 182.2 34 107.9-7.4 227-101.1 290.7-7.4 5-15.2 9.7-23.4 13.2-22.8 9.7-41.8 2.5-54.7-17.1-13.5-20.4-9.4-40.3 8-56.8 7.2-6.8 16.3-11.5 24.3-17.4 59.2-44.2 83.4-120.9 60-189.9-22.9-67.8-88.3-114.8-159.8-114.9-72.8 0-138.7 48.1-160.9 117.4-22.3 69.8 2.9 145.3 63 188.8 3.2 2.3 6.7 4.3 10 6.6 27.8 19.8 35 43.1 20.6 66.1-14.9 23.9-41.7 27.6-70.7 9-59-38-96.6-91.5-114.2-159.3-1.7-6.5-4.5-12.7-6.8-19v-78z"/><path fill-rule="evenodd" d="M648.5 1295.5c121.3 0 218.9 97.2 219.4 218.5.6 120.4-97.9 219.8-218.2 220.4-121.5.6-222.1-99.7-221.4-220.7.7-120.6 99.1-218.1 220.2-218.2zm129.4 220.7c1.1-71.6-56.3-130.1-128.1-130.6-72.2-.6-130.3 55.8-131.5 127.5-1.1 70.4 57.7 130.5 128.5 131.3 71.2.8 130.1-56.8 131.1-128.2zM240.8 640.7c-.5-113.6 91.2-207.1 204-208 114.5-1 209.1 92.4 209.1 206.5.1 112.5-93.4 206.3-206 206.7-112.8.5-206.6-92.4-207.1-205.2zm90-.5c.4 63.9 53.5 116.3 117.3 115.7 63.3-.6 116.5-54.6 115.8-117.7-.7-63.7-54.1-116-117.8-115.5-64 .5-115.7 53.2-115.3 117.5zm601.9 543c-101.3-.1-182.3-81.2-182.4-182.5-.1-101.2 81.1-183.3 181.7-183.9 101.5-.5 185.2 83.3 184.6 184.7-.6 100.7-82.7 181.8-183.9 181.7zm-.1-90c51.3.1 93.7-41.5 94-92.3.3-50.4-42.5-93.8-92.9-94.1-50.7-.3-93.2 42-93.4 93-.3 51.7 40.7 93.2 92.3 93.4zM725.1 2105.8c.5-99.2 80.5-179.1 179.4-179.1 98.6 0 179.4 80.5 180 179.2.6 99.5-81.7 181.4-181.6 180.7-98.6-.7-178.2-81.6-177.8-180.8zm180.5 90.8c48.8-.7 89.6-42.6 88.9-91.1-.8-48.9-42.4-89.4-91.1-88.8-49.3.6-88.8 41.4-88.2 91.1.5 49.5 41.3 89.4 90.4 88.8z"/></svg>