<svg version="1.2" xmlns="http://www.w3.org/2000/svg" viewBox="0 0 3074 3074" width="100" height="100"><style/><path fill-rule="evenodd" d="M3073.4 738.9V1135c-17.3 22.6-40.6 28.7-68.2 27.7-39.9-1.3-79.9-.3-119.9-.3h-112c0 52 .1 99.8 0 147.6s-14.3 61.8-62.8 62.4c-18.4.2-36.8 0-61.5 0 10.1 12.8 15.3 19.7 20.9 26.3 68.7 79.3 140.5 156.1 205 238.8 37 47.4 76.9 70.6 136.2 60.7 27.2-4.5 49 5.6 62.3 30.9v210c-16 24.6-39.4 29.3-67.2 29.3-385-.6-769.9-.4-1154.9-.4-7 0-14 .4-21-.2-29.6-2.4-46.4-18.4-46.8-47.8-.9-58-.8-116 0-174 .4-31.2 17.1-46.8 49.2-47.8 21.9-.7 44.1-1.6 65.9.2 21.3 1.8 35-6.6 48.4-22.4 79.3-92.7 159.5-184.6 239.2-276.9 6.1-7 11.4-14.8 20.4-26.7-25.1 0-44 .3-62.8 0-46.3-.8-60.4-15.2-60.6-61.7-.1-48.7 0-97.4 0-146.9h-820.6c-.5 10.1-1.4 18.8-1.4 27.6-.2 53 .3 106-.3 159-.3 33.4-15.9 49.3-49.1 51.6-12.9 1-26 .4-39 .4H993.3v1580.9c80 0 158 .4 235.9-.3 25.6-.2 48.8 3 58.8 30.5 10.3 28-6.6 44.9-26.9 59.8H271c-20.4-14.8-37.2-31.8-27-59.7 9.9-27.5 33.1-31.7 58.7-30.5 14 .7 28 .2 42 .2h194.4V1402.4h-34.5c-58 0-116 .4-173.9-.1-44.8-.4-59.4-15.4-59.7-59.4-.2-23.9 0-47.9 0-71.9v-108.6c-70.2 0-136.1-.8-202 .4-27.5.4-50.8-5.1-68.1-27.8V738.9c1.7-.8 3.9-1.3 4.9-2.7 176.9-233 353.6-466.1 530.6-698.9C546.5 24 559.4 12.9 571 .8h390.1c9 4 17.8 8.5 27 11.7 677.8 231.6 1355.6 463 2033.1 695.1 18.8 6.4 34.8 20.7 52.2 31.3zm-335.3-28q.3-2.7.6-5.5c-581.6-198.5-1163.2-397.1-1745.8-596v601.5h1745.2zm66.9 986.4c-3.1-6.2-3.8-9.2-5.6-11.2-86.8-100.5-173.4-201.1-261-300.9-6.7-7.5-20.5-12-31.1-12.2-52.8-1.2-105.8-1.6-158.7.2-11.9.4-26.9 7.8-34.9 16.9-83.1 94.4-165.1 189.8-247.3 285-5.2 6-9.4 12.9-16.1 22.2H2805zM361.9 1310h807.3v-145.1H361.9V1310zM138.3 709.9h400.5V182.5c-135 177.8-266.4 350.8-400.5 527.4zM1874 1875.6h1107.5v-85.2H1874v85.2zM2981.9 802.4c-59.6 0-116.5-.5-173.3.6-8.6.2-18.8 6.4-25.2 12.7-80.3 79.4-160 159.3-239.7 239.2-3.8 3.9-6 9.5-9.8 15.8h448V802.4zM901 2265c0-106.4.4-203.8-.7-301.3-.1-9-8.6-19.4-15.8-26.7-71.6-72.3-143.8-144.1-215.5-216.3-10.9-10.9-20.4-23.1-30.6-34.7q-3.7 2.5-7.3 5c0 97.5-.2 194.9.4 292.4 0 6.9 4.6 15.3 9.6 20.4 84.2 85.1 168.8 169.8 259.9 261.2zm-6.6 432.6l6.6-3.4c0-96.7.4-193.4-.6-290.1-.1-9.2-7.4-20.2-14.4-27.3-78.6-79.4-157.8-158.4-237-237.3-4.4-4.4-9.6-7.9-18-14.6 0 101.6-.1 198.3.4 294.9 0 7.1 3.3 16 8.2 21 84.7 85.9 169.8 171.3 254.8 256.8zm17.3-1892.1c-10.8-1.8-14.5-2.9-18.3-3-91-.1-181.9-.7-272.9.6-11.1.1-24.5 7.7-32.9 15.9-65.7 64.4-130.3 129.9-195.5 194.6-17.5 17.4-36.3 33.4-54.5 50 14.1 7.8 23.7 8.7 33.2 8.7 66 .1 132.2-3.6 197.9 1.2 54.6 4 93-12.8 130-53.4 66.4-72.9 138.7-140.4 213-214.6zm1315.1.4c-9.3-1.9-12.9-3.4-16.5-3.4-91.9-.1-183.7-.7-275.5.6-11.1.2-24.1 8.5-32.5 16.8-74.7 73.5-148.4 148-223 221.7-8.2 8-20.2 12.3-32.8 19.8 12.9 8.4 14.5 10.3 16.1 10.3 94.8.3 189.6.7 284.4.1 7.9 0 17.7-4.6 23.4-10.3 84.4-83.5 168.3-167.5 256.4-255.6zm438.6-.5c-10-1.7-13.7-2.9-17.5-2.9-91-.1-181.9-.7-272.9.6-11.2.1-24.7 7.4-33 15.5-59.4 58-117.4 117.3-176.5 175.5-24 23.7-49.7 45.7-79.1 72.5 13.3 3.6 16.9 5.5 20.6 5.5 91.9.2 183.9.4 275.8-.1 8.2-.1 18.6-3.1 24.2-8.6 85.1-84.3 169.6-169.1 258.4-258zm-1315.1 0c-11.5-1.6-16.1-2.9-20.6-2.9-90-.1-179.9-.7-269.8.6-11.3.1-24.9 7.2-33.2 15.4-79 77.8-157.2 156.4-235.6 235-4.3 4.3-7.5 9.9-14.1 18.8 101.8 0 198.5.2 295.2-.5 7 0 15.5-4.6 20.6-9.7 84.5-83.7 168.5-167.8 257.5-256.7zm438.2.4c-10.9-2-14.7-3.2-18.4-3.3-90.9-.1-181.9-.7-272.8.6-11.1.2-24.4 7.9-32.8 16.1-60.8 59.4-120.2 120-180.7 179.7-22.5 22.2-46.7 42.7-70.1 64.1l5.4 9.4c59.5 0 119.6-5.5 178.3 1.3 89.1 10.3 155.1-17.2 212.4-87.1 52.2-63.6 115.7-118 178.7-180.8zM631.1 1404c0 48.3-.7 95.1.6 141.8.3 8.3 7.8 17.8 14.4 24.5 78.8 79.4 158.1 158.5 237.4 237.6 4.3 4.3 9.9 7.5 15.5 11.8V1404H631.1zm270 1577.9c0-45.5 1.2-87.4-.8-129.3-.6-13.2-6.8-29.1-15.9-38.4-76.8-78.6-154.8-155.9-232.6-233.5-5.2-5.3-10.9-10-18.6-17v418.2h267.9zm0-2271.1c0-31.8 1.4-60.8-.7-89.5-1-12.5-6.3-27.5-14.9-36.2-78.3-79.9-157.8-158.7-237-237.7-4.3-4.3-9.8-7.3-15.8-11.7v375.1h268.4zM631 92.1c0 29.5 1.2 56.4-.4 83.2-1.1 19.6 5.6 33.2 19.5 46.9 76.2 75 151.5 150.9 227.1 226.4 6.4 6.4 13.1 12.4 22.1 20.9V92.1H631zM91.8 1072.4c28.5 0 54.4-1.4 80 .4 23.9 1.7 41-5.9 57.8-23.2C297.1 980.3 366 912.2 434.7 844c11.7-11.6 25-21.6 37.6-32.3q-2.9-3.4-5.7-6.8H91.8v267.5zm2082.9 208.1H2681v-116.4h-506.3v116.4z"/></svg>