<svg version="1.2" xmlns="http://www.w3.org/2000/svg" viewBox="0 0 2841 3278" width="87" height="100"><style/><path fill-rule="evenodd" d="M626.7 3277.5C463.9 3256.2 374 3136 286 3018.7c-209.2-279-304.4-593.9-282-943 20.1-313.2 129.9-591.3 335.4-828.1 54.7-63 67.8-117.1 34.6-195.2-58.2-136.9-111.1-276.6-156.8-418.2C125.3 349 303.6 60.4 599.1 7.4c9.3-1.7 18.4-4.7 27.6-7H2214c43.9 12.3 89.6 20.1 131.3 37.6 251 105.2 363.7 370.9 268.2 629.9-52.3 141.7-106 283-160.4 423.9-17.6 45.5-12.8 83.7 20.4 120.6 106.2 118.1 191.5 249.8 253.4 396.5 89.5 211.8 126.4 432.3 109.5 661.5-22.5 305-133.4 574.4-329.1 808.6-53.8 64.4-107.6 131.1-187.3 166-33.6 14.7-70.6 21.9-106 32.5H626.7zm793.2-128c238.9 0 477.9-2.3 716.7 1.2 88.8 1.3 158-25.6 217.7-91.5 339.7-375.4 437.9-805.7 295.1-1290.4-53-179.8-149.8-335.8-274.2-475-65.8-73.6-77.4-154.9-42-246.3 55.7-144 111.3-288 163.1-433.4 87.3-244.9-81.3-484.8-341.1-485.4-489.6-1-979.2-1.1-1468.8.9-48.9.2-100.9 9.5-146 28-184.3 75.1-264.7 274.6-192.6 467.8 52.9 141.6 108.1 282.4 159 424.7 12.9 36.1 18 76.6 18.1 115.1 0 64.1-42.3 109.2-81.4 154.8-188.1 219-293.8 472.4-311.5 760.8-23.7 385.4 102.5 715.6 369.6 993.5 49.7 51.8 107.2 76.1 179.1 75.7 246.4-1.4 492.8-.5 739.2-.5z"/><path fill-rule="evenodd" d="M1419.6 346c180.3 0 360.5-.6 540.8.2 149.6.7 263.2 107.3 268.1 256.2 1.4 40.1-10.5 82.2-23.5 120.9-19.1 56.4-44.8 110.5-67.6 165.6-40.3 97.3-111.3 128.1-208 87.1-176.4-74.7-360.2-109.6-551.5-103.4-161.4 5.2-316.3 40.2-465.6 102.2-27.6 11.4-59.9 18-89.4 16.5-53.4-2.7-90.7-35-111.7-83.5-28.7-66.4-57.4-133-82.5-200.8-66.3-179 58.9-359.4 250.2-360.7 180.2-1.2 360.5-.3 540.7-.3zm2.6 128c-178.1 0-356.2-.3-534.3.2-114.7.3-176.8 92-135 198.8 21 53.5 45.4 105.7 64.7 159.8 11.1 30.7 23.8 35.3 53.6 22.4 159.1-69.1 326.2-104.5 499.3-110.4 208.6-7.1 409.6 28.8 601.6 111.4 26.7 11.5 39.3 8.2 49.6-20 19.1-51.9 41.8-102.5 62.7-153.8 47.9-117.7-13.2-208.2-140.7-208.3-173.8-.1-347.7-.1-521.5-.1z"/><path d="M1417.9 2818.9c-262.6-12.1-457.3-132.2-581.7-364.6-19.2-35.9-10.2-70.6 20.6-89.2 31.8-19.1 65.4-8.1 90.4 26.8 37.1 51.7 70 108.1 114.8 152.2 260.4 256.5 712.3 157 844.8-183.6 132-339.5-99.1-703.4-462.7-718.4-215.2-8.8-379.3 87.8-486.1 277.1-7.9 13.9-14.4 28.5-22.6 42.2-20.5 34.1-52.7 45.6-83.9 30.6-32-15.4-48-52.2-29.2-86.5 31-56.7 61.2-116.1 103.3-164.2 167-190.5 380.3-265.4 627.2-214.1 244.4 50.8 409.4 203 488.7 440.2 126.8 379-134.3 791.4-530.9 842.9-30.6 4-61.4 5.8-92.7 8.6zm311.8-1723.2c27.9 9.6 65.6 20.9 101.9 35.6 204.7 83 371.3 214.5 499.2 394.8 28.1 39.7 26 77.7-6.2 101.4-30.9 22.7-68.1 14.3-95.7-24.6-94.3-132.7-212-238.9-357.5-312.1-53-26.6-109.6-46.2-165.1-67.8-28.8-11.2-50.9-27.5-54.5-60.1-4.1-37.2 29-69.7 77.9-67.2zm-305.5 83.6c-37.3.2-67.1-27.5-67.4-62.7-.4-34.6 29.9-64.3 66.1-64.7 35.9-.4 67 28.9 67.3 63.5.4 35.4-28.9 63.7-66 63.9z"/><path d="M895.2 2165.6c.4 35.8-29.3 65.8-64.7 65.3-34.1-.6-62.5-29.4-62.8-64-.4-35.3 30.2-66.4 64.7-65.7 33.6.6 62.4 30.1 62.8 64.4z"/></svg>