<svg version="1.2" xmlns="http://www.w3.org/2000/svg" viewBox="0 0 543 491" width="111" height="100"><style/><path d="M194.5 58.1c5.1 0 9.4-4.2 9.4-9.4V9.6c0-5.2-4.2-9.4-9.4-9.4s-9.4 4.2-9.4 9.4v39.1c0 5.2 4.2 9.4 9.4 9.4zm93.5 47.8c2.4 0 4.8-.9 6.6-2.7l33.7-33.7c3.7-3.7 3.7-9.6 0-13.3-3.7-3.7-9.6-3.7-13.3 0l-33.6 33.7c-3.7 3.7-3.7 9.6 0 13.3 1.8 1.8 4.2 2.7 6.6 2.7zm-208.7-2.7c1.8 1.8 4.2 2.7 6.6 2.7 2.5 0 4.9-.9 6.7-2.7 3.7-3.7 3.7-9.6 0-13.3L58.9 56.2c-3.7-3.7-9.6-3.7-13.3 0a9.54 9.54 0 000 13.3zm-17.6 84.7c0-5.2-4.2-9.4-9.4-9.4H10c-5.2 0-9.4 4.2-9.4 9.4s4.2 9.4 9.4 9.4h42.3c5.2 0 9.4-4.2 9.4-9.4z"/><path fill-rule="evenodd" d="M542.4 295.7c0 81.9-66.5 148.5-148.4 148.5-10.9 0-21.9-1.3-32.9-3.9-19.7 31.2-53.9 50.3-91.1 50.3-45.1 0-85-28.1-100.6-69.7-14.6 7.2-30.7 10.9-47 10.9-59.4 0-107.6-48.2-107.6-107.6 0-53.6 39.5-98.1 90.9-106.2-1.1-3.3-2.2-6.6-2.9-10.1-11.1-50.6 21-100.8 71.6-111.9 44.6-9.8 88.9 14.1 106.4 54.5 13.5 3.3 26.4 9.3 37.7 17.6 22.9-13.6 48.9-20.8 75.5-20.8 81.9 0 148.4 66.6 148.4 148.4zm-421.3-91.8c1 4.5 2.5 8.7 4.2 12.8 9.4.3 18.7 1.7 27.6 4.4 14.5-43.9 55.1-73.8 102.1-73.8 1 0 1.9.1 2.9.1-16.5-25.8-47.8-40-79.4-33-40.5 8.8-66.3 49-57.4 89.5zm402.6 91.8c0-71.4-58.2-129.6-129.7-129.6-25.2 0-49.8 7.4-70.9 21.3-3.5 2.2-8 2-11.2-.7-7.5-6.2-15.9-11-24.8-14.5-6.5-2.6-13.4-4.3-20.4-5.2-3.9-.5-7.7-.9-11.7-.9-41.7 0-77.3 28.5-86.5 69.2-.6 2.7-2.4 5-4.9 6.3-2.4 1.3-5.3 1.4-7.8.3-10.7-4.3-22-6.5-33.4-6.5-49 0-88.8 39.8-88.8 88.8S73.4 413 122.4 413c16.8 0 33.2-4.8 47.5-13.8 1.5-1 3.3-1.5 5-1.5q1.8 0 3.5.7c2.8 1.1 4.9 3.5 5.7 6.4 9.9 39.4 45.3 67 85.9 67 32.8 0 62.7-17.9 78.3-46.8 2.1-3.8 6.5-5.8 10.8-4.6 11.6 3.3 23.4 5 34.9 5 71.5 0 129.7-58.2 129.7-129.7z"/></svg>