<svg version="1.2" xmlns="http://www.w3.org/2000/svg" viewBox="0 0 3073 2702" width="100" height="88"><style/><path fill-rule="evenodd" d="M3072.4 2592.4c-27.6 80.3-84.6 110.2-168.1 108.7-168-3.1-336-.9-504.1-1-10.9 0-22.3.5-32.7-2.4-21.9-6.2-33-22.6-32-45 1.1-22.5 14.1-37.2 36.5-41.5 9.7-1.8 19.9-1 29.9-1h516c50.8-.1 64.5-13.5 64.5-63.5q.1-264 0-528c0-50.8-12.9-63.8-63.7-63.9H1649.6c-106.6 0-158.3-51.5-158.4-158.1-.1-111 0-222-.1-333 0-55.9-11.3-67.4-66.3-67.4-114-.1-228 .1-342-.1-96-.2-151.1-54.9-151.3-150.5-.2-116 .1-232-.1-348 0-48.7-13.5-62-62.7-62q-357-.1-714.1 0c-51.7 0-64.6 13.3-64.6 66.5 0 360-.1 720 .1 1080 .1 26.7-3.1 50.7-34 58.7-25 6.6-41.3-7.6-56.1-24.6V852.1c29.1-81.4 88.4-109.9 172.3-107.4 114.9 3.6 230 .9 345 .9h39.4v-92.3c-3-2-3.8-3.1-4.6-3.1-76-.4-152-.1-228-1.4-73.2-1.2-131.1-54.8-137.4-124.9-6.3-70.8 40.5-137 113.9-145.3 72.2-8 145.6-4.3 218.5-5.7 12.6-.3 25.1-.1 39.7-.1 0-77-.2-149.9.1-222.7C559.2 64.6 617.4.4 693.9.4 777.4.4 834.2 60.3 835 150.2c.6 63 .1 126 .1 189v32h278.7c1.6-3.2 3.2-4.9 3.2-6.6.4-69 .1-138 1.3-206.9.4-20.8 1.8-42.4 7.8-62.1 19.1-62.5 83-102.6 146.4-94.5 66.5 8.5 118.3 61.3 120.8 128.5 2.6 69.9.9 140 1.3 210 .1 10.5 1 21 1.5 31.6h281.8c0-13.4-.1-25.2 0-37 .2-69-1.5-138 1.4-206.9 2.8-66.6 56.9-119.8 122.9-126.5 64.2-6.4 125.8 34.7 143.5 98.3 5.8 20.8 8 43.2 8.4 65 1 68.6.3 137.2.3 206.5h283c0-78.1-.6-154 .1-229.8.8-75.1 54.1-133.9 125.3-140.1 72-6.2 137.2 41.2 145.5 117.2 8 72.1 4.1 145.6 5.3 218.5.2 11.5 0 23.1 0 36.4 77.3 0 150.2-1.1 223 .7 23.5.5 48.3 4.7 69.7 13.8 55.8 23.7 88 86 77.3 141.7-14.1 73.5-60 116.6-132.8 119.2-67.9 2.5-135.9.9-203.9 1h-32.1c-.7 16.7-.1 28.8-2.1 40.5-4.2 24.7-19.6 39.2-44.9 40.2-23.8.9-41.9-17.9-43.9-44-.6-8.9-.3-17.9-.3-26.9 0-166 .1-332 0-498 0-47.2-17.4-71.3-50.4-70.5-31 .7-45.9 23.5-45.9 70.7v1701.3h96.3v-233c0-245 0-490 .1-734.9 0-37.7 16.5-58.6 45.1-58.2 28.1.4 44.4 22 44.8 59.3.1 11.6 0 23.1 0 36.5 27.5 0 50.5-.3 73.4 0 60.9.7 122.3-2.6 182.7 3.7 78.8 8.2 128.8 84.9 111.8 161.4-16 71.8-65.4 110.1-146 111.3-63 .9-126 .1-189 .3-10.4 0-20.9 1.1-32.9 1.8v280.9h39.4c69 .4 138-1.1 206.9 1.8 58.5 2.4 105.7 44.1 120.9 100.2 24.9 91.9-41.2 172.5-144.3 174.4-63 1.2-126 .3-189 .3h-32.2v96.5h33.8c127 0 254 .3 381-.1 47.1-.2 86.7 15.4 114.3 53.9 12 16.7 18.9 37 28 55.7v618.1zM1304.5 1304.3V159.4c0-9.9.1-20.1-1.7-29.8-4.2-23.8-20.1-37-43.2-38.6-23.4-1.6-40.8 10.1-47.7 32.9-3.4 11.2-3.8 23.6-3.8 35.5-.2 370.8-.1 741.6-.1 1112.4.1 10.5 1.1 21 1.7 32.5h94.8zm91.9-746.8H2235v-93h-838.6v93zm839.5 932.1v-278.7h-280v278.7h280zm-1.1-372.6v-92.4h-838.3v92.4h838.3zm-837.5-466.4v279.8h278.4V650.6h-278.4zm-280.9-186.5c-8.2-.6-13-1.2-17.9-1.2-253.9 0-507.7-.1-761.6.1-7.9 0-16.1.7-23.7 2.7-24.7 6.4-37.5 24.1-36.1 48.4 1.5 26 17.2 41.9 44.1 44.5 7.9.8 16 .6 23.9.6 246.9 0 493.8 0 740.7-.1 9.7 0 19.4-.9 30.6-1.4v-93.6zm840 186.8v279h278.5v-279h-278.5zm279.1 933.6h-654.2c0 22.8 1.5 42.8-.4 62.6-2.4 25.2 7.4 31.8 32 31.7 197.7-.9 395.5-.5 593.2-.6 9.7 0 19.3-1 29.4-1.6v-92.1zm-560-94.7v-278.2h-278.8v94.8c133.6-11.2 193.6 52.9 185.2 183.4h93.6zm-560.3-559.4V649.2H837.4v96.6c53.4-2 103.6-.3 144.3 39 42 40.4 40.5 92.5 40.5 145.6h93zm654.2 279.7v279.2h92.3v-279.2h-92.3zm-.3-280.5h93.4V651.8h-93.4v277.8zm466.6 840.7H1956v92.4h279.7v-92.4zM745 371.5c0-79 .5-154.7-.2-230.4-.3-30.6-20.6-51-47.4-50.6-26.8.3-47.5 20.8-48.2 50.6-1.1 43.8-.4 87.7-.4 131.6v98.8H745zm1023.8-.7h95.6c0-62.8.2-123.6-.1-184.4-.1-18.9.2-38.1-2.7-56.7-4.2-26.9-23.4-39.9-49.1-38.5-24.6 1.3-42.7 16.3-43.2 41.7-1.3 78.7-.5 157.5-.5 237.9zm746.4 1307.5c68.1 0 133 .1 197.8-.2 14.9 0 30.1-.1 44.7-2.7 25.5-4.5 38-22.8 37.6-47-.4-24.5-14.6-44.1-39.8-44.7-79.6-1.7-159.2-.6-240.3-.6v95.2zm-.3-1119.3c78.9 0 154.5.6 230.1-.3 31.1-.3 50.4-20 50.8-47.4.5-26-20.6-47.3-50.6-48.1-43.8-1.1-87.7-.3-131.5-.4h-98.8V559zm-.3 559.7c76.5 0 150.3.5 224-.2 36.1-.4 56.8-18.9 57.3-47.9.5-28.8-22.8-48.1-60-48.3-67-.4-134-.2-201 0-6.5.1-13.1 2-20.3 3.1v93.3zM650.8 650.8v92.3h92.3v-92.3h-92.3zm372.8 373.1v92.2h92.2v-92.2h-92.2zm746 746.2v92.4h93.1v-92.4h-93.1zm-745.9-559.5c-7.9 84.6 14.8 106.5 92.1 91.8v-91.8h-92.1zm561.2 559.6c-13.9 80 13.2 106.8 90.4 90.4v-90.4h-90.4z"/><path d="M0 2178.3c15.5-19.6 32.5-35.6 60.5-25.2 28.3 10.5 29.7 34.1 29.6 59.1-.2 112-.1 224-.1 335.9.1 48 14.2 62 62.8 62 667.8.1 1335.6.1 2003.4.1 11 0 22.1-.9 32.9.7 23.7 3.8 37.5 17.9 38.3 42.5.9 24.6-11.9 40-35.1 45.2-11.5 2.6-23.9 1.5-35.9 1.5-662.8.1-1325.5-.6-1988.3 1-83.5.2-140.5-28.5-168.1-108.7v-414.1z"/></svg>