<svg version="1.2" xmlns="http://www.w3.org/2000/svg" viewBox="0 0 4007 4091" width="100" height="102"><style/><path fill-rule="evenodd" d="M3386.3.8c237.6 250.9 441.8 524.2 560.8 852.7 51.4 141.8 76.2 287.6 47.8 438.8-21.8 116-75.2 214.9-157.7 298.6-18.5 18.8-38.1 36.5-59 56.6 94.4 78 157.4 173.9 187.5 290.9 24.1 93.5 16.4 188 8 281.9-28.6 322.2-130.7 620-302.8 894-7.4 11.8-12.2 26.7-13.3 40.6-19.3 240-38.7 480-56.1 720.1-10.8 148.6-124.4 237.2-284 210.2-49.2-8.3-98-32.1-141.2-58.4-42.8-26.1-59-73-61.5-123.8-3.3-64.8-8.8-129.5-13.3-194.4-85.2 46.6-164.7 95.1-248.3 134.9-1142.4 544.8-2479.6-81.9-2792.1-1307.8C-129.6 1788 138.7 980.6 739.2 495.4c37.3-30.2 70.8-32.8 95.7-7.4 28.2 28.6 21.7 63.2-13 96.7-89.8 86.7-186.2 168.3-265.8 263.7-259 310.5-404.1 670.5-427.9 1074.3C93.6 2511 289.7 3013.4 718.5 3418c294.9 278.3 648.4 441.9 1052.4 488.4 469.9 54.1 899.7-56.5 1289.7-323.7 17.9-12.3 32.3-22.6 30.2-49.9-16.2-208.2-30.4-416.6-45.3-625-.5-6.5-1.7-13-2.8-21.6-12.6-3.2-25.1-6.6-37.8-9.4-145.6-32.2-254.8-154.1-265.9-296.9-12.4-160.3 71.8-299.4 218.4-352 34.3-12.3 41-28.5 37.8-60.2-6-60.9-9.6-122-13.9-183-4.2-61-8.1-121.9-12.2-183.3-73.9 10.9-145.4 25.1-217.6 31.3-217.3 18.8-427.9-4.9-621.8-114.2-265.5-149.7-346.3-434-199.1-701.1 86-156 215.8-268.2 366.5-358.5 14.8-8.8 30.1-16.9 45-25.7 89.4-52.6 129.5-135.4 111.7-230.7-18.2-97.4-90.9-171.3-190.4-183.9-329-41.8-653.8-30.5-966 94.6-97 39-188.9 90.8-283 137.1-13.1 6.4-24.7 15.7-37.7 22.3-33.3 17.1-66.7 9-83.8-19.5-17-28.3-10-64.3 21.4-83.1 61.6-36.8 123.5-73.6 187.8-105.1C1396.2 120.7 1708 62.2 2034.3 78.5c83.6 4.2 167.7 8.7 250.3 21.1 154.7 23.2 263.9 136.4 291 293 23.9 138.3-44.5 274-178.6 349-130.6 73-247.8 161.3-331.3 287.4-81.9 123.7-120.3 256-53.7 399.3 52.4 112.7 148.1 179.6 259.7 223.9 218.5 86.7 441.8 80.1 666.4 26.2 7.6-1.9 16.2-8.2 19.6-14.9 1.7-3.3-5.6-14.5-11.4-18-142.4-87.2-220.3-217.1-244.9-379.1-27.6-181.8 15.4-349.7 119.7-499.6 40.7-58.4 94.6-107.6 141.5-161.8 83.5-96.4 169.8-190.7 248.3-291.1 55.4-70.9 85.8-154.6 90.9-247.2 1.2-22.6 23.8-44 36.5-65.9h48zm17.3 198.8c-65 188.4-196.4 324.5-325.8 461.9-29.2 30.9-59.9 60.5-89.5 91-108.2 111.5-169 244.6-172.4 400.1-3.3 152.7 42.2 286.3 175.1 376.2 20.5 13.9 48.8 22.4 73.6 22.7 199.4 2.9 398.8 3.8 598.2 3.5 19-.1 41.9-8.2 56.4-20.5 146-123.8 184.9-285.2 158.1-467.7-20.4-138.4-74.1-265.4-139.4-387.8-91.5-171.7-204.9-328-334.3-479.4zM3133.7 2414c13.5 197.6 26.5 391.1 40 584.7 20.1 289 40.8 578.1 60.5 867.2 4.5 66.6 18.1 87.6 85.7 96.2 35.5 4.5 73.5-1.8 109.1-9.3 30.9-6.5 46.7-29.3 49.1-63.8 10.8-153.8 23.7-307.4 35.8-461.1 20.3-259.7 40.7-519.4 60.9-779.1 6.1-77.5 11.6-155 17.5-234.8h-458.6zm516.6-736h-568.2c14.4 205.4 28.6 407.5 42.8 611.1h477.5c16-204 31.8-405.2 47.9-611.1zm112.1 123.5c-27.2 348.3-53.5 685.3-80.6 1032.3 8.1-12.3 11.5-16.2 13.5-20.7 108.7-244.8 167.4-500.4 162.9-769-1.4-87.4-34.4-164.8-95.8-242.6zm-756 538.2c-105.2 38.2-164.2 140.4-145.4 243 16.8 91.9 98.1 171.9 174.3 168.9-9.6-135.9-19.1-271.8-28.9-411.9z"/><path fill-rule="evenodd" d="M779.1 2571.9c-220.1.4-401.7-179.9-402.7-399.9-.9-222.3 180.5-405.2 401.9-405.1 221.9.1 403.5 182.3 403 404.2-.5 219.5-182 400.4-402.2 400.8zm-1.5-121.2c154 .9 282-126.7 282.2-281.1.2-152.8-125.7-280.2-277.9-281.2-155.1-1.1-282.9 124.3-284.5 279-1.6 153.7 125.7 282.4 280.2 283.3zm285.8-842.4c-223.3 0-401.5-179.4-401-404 .5-221.3 179.5-399 401.8-399 223.6.1 402.5 180 401.7 403.8-.9 221.1-180.4 399.3-402.5 399.2zm280.4-400.7c.4-155-123.4-281-276.1-281.2-157.7-.3-283.5 122.3-284.5 277.3-1 156.2 123.7 282.9 278.7 283.2 157.2.3 281.6-123 281.9-279.3zm2.7 2196.7c-222.6.3-403.2-180.7-402.7-403.5.5-220.1 181.4-399.7 402.7-399.5 223.3.1 402.9 180.1 402.4 403.4-.5 220.4-180.6 399.3-402.4 399.6zm.2-681.8c-157.1 1.1-282.2 126-281.4 281 .8 155.3 127.7 280.7 283 279.6 155.7-1.1 281.7-128.8 279.5-283.2-2.1-154.1-128.1-278.4-281.1-277.4z"/><path d="M2711.4 3244.2c-5.4 32.6-8.6 65.8-16.7 97.8-9.3 37-38.3 54-71.6 46.7-33.5-7.3-47.2-34.1-46.1-72.5 1.6-53.7 7.6-110.1-5.7-160.7-31.1-117.7-141-194.6-262-195.4-122.2-.8-228.8 74.3-268.5 189.2-39.3 113.5-.3 241.8 95.6 314.5 96.8 73.4 228.1 76.8 328.3 8.4 8.8-6 16.8-13.1 25.7-19 31.1-20.9 65.3-17.7 86 7.7 21.4 26.2 17.5 63.9-12.6 88.2-106.4 85.8-226.9 114.3-359.4 79.6-201.3-52.8-323.3-240.4-295.4-450 25.4-190.8 199-339.5 398-340.8 221.1-1.5 401.9 181.4 404.4 406.3z"/></svg>