<svg version="1.2" xmlns="http://www.w3.org/2000/svg" viewBox="0 0 3073 2689" width="114" height="100"><style/><path fill-rule="evenodd" d="M3072.6 1836.7c-16.2 15.6-29.9 35.5-48.8 46-480.9 264.9-962.3 528.7-1443.4 793.2-30.3 16.7-56.7 16.6-87.1-.1-481-264.7-962.5-528.4-1443.4-793.3C31 1872 17.2 1852.2 1 1836.7v-35.9c18-15 34.2-33 54.2-44.3 81.6-46.4 164.3-90.8 246.5-136 21.7-11.9 43.2-24.2 67.8-38-108.6-59.6-213.8-116.6-318.1-175.6-19-10.7-33.7-29.2-50.4-44.1v-36c16.7-14.9 31.4-33.4 50.4-44.1 104.3-58.9 209.5-116 317.8-175.5-11.2-6.6-19.6-11.7-28.2-16.4-95.3-52.4-191.1-104.1-285.8-157.6-20-11.4-36.2-29.4-54.2-44.3v-36c15.3-15 28.3-34.3 46.3-44.2 482.8-266 966.2-530.9 1449.3-796.4 27.2-14.9 51.6-16 78.9-.9 160 88.3 320.5 175.7 480.2 264.4 14.8 8.3 29.7 22 36.9 36.9 11.3 23.2 5.3 47.4-14.9 65.3-21 18.6-45.3 20.3-69.6 7.4-53.8-28.7-107.1-58.3-160.5-87.6C1751.3 245 1655 192.2 1558.9 139c-13.9-7.8-24.7-10.7-40.7-1.8C1079 378.8 639.4 619.7 199.9 860.8c-3.4 1.9-6.4 4.5-12.4 8.7 27.8 15.3 53.9 29.7 80 44 413.2 226.7 826.5 453.3 1239.3 680.7 21.6 11.9 37.3 13 59.5.7 432-238.1 864.6-475.2 1297-712.5 6.9-3.8 13.4-8.3 23.2-14.4-80.9-44.4-159.3-87.5-237.6-130.6-52.5-28.8-105.1-57.6-157.4-86.7-37-20.5-49.4-52.5-33.1-84.2 16.9-33 51.7-41.6 90.1-20.6 161.3 88 322.6 176.1 483 265.5 16.4 9.1 27.5 27.4 41.1 41.5v36c-18.8 15.5-35.8 34-56.7 45.9-78 44.5-157.3 86.8-236 130.1-24.3 13.3-48.4 27-75.5 42.2 107.6 59 212.1 115.3 315.4 173.7 19.9 11.3 35.3 30.5 52.8 46v36c-17.5 15.5-32.9 34.7-52.8 46-103.3 58.4-207.8 114.8-315.1 173.6 11.1 6.4 19.5 11.4 28.1 16.1 94.5 52 189.3 103.2 283.1 156.3 20.9 11.8 37.9 30.5 56.7 46v35.9zm-184.8-15.7c-94.7-52.2-185.2-100.8-274.4-151.7-24.3-13.9-42.2-14.7-67.5-.7-318.8 176.4-638.7 351-957.6 527.4-36.6 20.2-67.2 21.5-103.1-.3-52-31.7-106.4-59.3-159.8-88.6-267.8-147.1-535.6-294.1-803.5-441-13.4-7.3-24.6-17.1-43.3-6.5-91.2 51.7-183.5 101.5-275.4 152-4.6 2.6-8.6 6.5-14 10.5 6.2 3.7 10.4 6.3 14.8 8.7 436.7 239.7 873.6 479.2 1309.9 719.7 20.6 11.3 34.2 6.1 51.5-3.4 283.4-155.9 567.1-311.4 850.7-467.1 155.8-85.4 311.5-171 471.7-259zm-.1-476.4c-99.2-54.4-192.3-104.6-284.4-156.7-18.2-10.2-31.2-9.4-48.8.3-322.7 177.8-645.9 354.6-968.5 532.7-34.3 19-63 19.3-97.7.2-322.4-178.2-645.7-355-968.4-532.7-17.5-9.6-30.5-11.1-48.8-.6-70.2 40.1-141.7 78.1-212.6 116.9-22.3 12.3-44.5 25-70.3 39.5 12 7.5 19.9 13 28.3 17.6 430.7 236.3 861.4 472.3 1291.8 709.2 20.9 11.6 36 11.9 57.1.3 403.1-222.1 806.7-443.4 1210.2-664.8 35.6-19.6 71.1-39.3 112.1-61.9z"/><path d="M2334.5 463.5c.1 33.5-27.4 60.3-61.1 59.7-32.3-.7-58.3-27-58.5-59.3-.1-32.9 28.5-61 61.1-60.2 31.8.8 58.4 28.1 58.5 59.8z"/></svg>