<svg xmlns="http://www.w3.org/2000/svg" width="55.333" height="58.333" viewBox="0 0 55.333 58.333"><g fill="#126B2C"><path d="M51.218 25.69c-.693-2.208-2.226-3.629-4.57-4.027-.441-.075-.905-.011-1.421-.011 0-2.039.024-3.974-.02-5.907-.009-.403-.158-.91-.429-1.184A1028.298 1028.298 0 0034.429 4.233c-.246-.243-.713-.278-1.088-.367-.199-.047-.42.002-.631.002-7.054 0-14.11-.007-21.165.004-3.028.004-5.176 2.131-5.177 5.134-.008 13.408-.009 26.815 0 40.223.002 3.112 2.182 5.257 5.298 5.258 9.413.003 18.827.002 28.24-.002.385 0 .779-.008 1.155-.082 2.477-.485 4.155-2.564 4.162-5.181.012-4.539.009-9.079-.006-13.619-.001-.393.121-.643.413-.894a279.635 279.635 0 003.889-3.41c1.709-1.52 2.387-3.418 1.699-5.609zM34.887 8.383l5.883 5.838h-5.883V8.383zm7.805 40.822c-.003 1.664-1.077 2.753-2.736 2.754-9.448.007-18.896.006-28.344.001-1.701-.001-2.713-1.055-2.714-2.805-.003-10.012-.002-20.024-.002-30.035 0-3.325-.002-6.651.001-9.976.001-1.765.978-2.741 2.741-2.741l20.058-.001h.615v.688c0 2.692-.001 5.384.001 8.076.001 1.228.379 1.601 1.61 1.601h8.774v.597c0 1.548-.022 3.097.013 4.645.011.491-.152.804-.511 1.119-4.83 4.23-9.64 8.483-14.478 12.704-.656.572-1.06 1.185-1.217 2.06-.34 1.901-.787 3.783-1.188 5.674-.254 1.196.322 1.866 1.558 1.796 2.125-.12 4.249-.265 6.374-.369.546-.027.967-.222 1.367-.575 2.504-2.214 5.02-4.415 7.532-6.62.144-.127.293-.249.5-.425.021.182.047.306.047.43.002 3.801.007 7.601-.001 11.402zm-.169-15.102c-3.054 2.681-6.106 5.365-9.174 8.029-.23.199-.577.336-.882.363-1.191.105-2.387.156-3.581.221-.243.013-.487.002-.795.002.209-1.005.489-1.97.595-2.954.141-1.299.812-2.162 1.782-2.99 3.385-2.889 6.701-5.859 10.044-8.798.131-.115.265-.226.447-.381l3.897 4.445c-.789.697-1.558 1.383-2.333 2.063zm5.651-5.013c-.427.439-.906.827-1.411 1.284l-3.908-4.466c.527-.45.991-.91 1.516-1.284 1.212-.864 2.752-.582 3.8.653 1.021 1.203 1.033 2.754.003 3.813z"/><path d="M31.228 29.76c.525-.109.889-.535.949-1.065.091-.812-.471-1.399-1.385-1.402-2.62-.009-5.24-.003-7.86-.004-2.514 0-5.029-.001-7.543.001-.211 0-.423-.003-.632.022-.61.073-1.057.56-1.088 1.167-.031.609.36 1.15.955 1.28.238.052.488.062.733.062 5.046.003 10.093.003 15.139 0 .243-.001.493-.012.732-.061zm-16.217-8.174c3.32.016 6.641.023 9.961-.016.369-.004.804-.252 1.085-.518.35-.332.363-.826.139-1.276-.231-.466-.618-.709-1.141-.71-1.687-.002-3.373-.001-5.06-.001v-.004c-1.651 0-3.303-.007-4.954.003-.822.005-1.354.491-1.375 1.213-.022.741.518 1.305 1.345 1.309z"/></g></svg>