<svg xmlns="http://www.w3.org/2000/svg" width="60mm" height="20mm" viewBox="0 0 6000 2000" shape-rendering="geometricPrecision" text-rendering="geometricPrecision" image-rendering="optimizeQuality" fill-rule="evenodd" clip-rule="evenodd"><path d="M2275.48 1885.08v-564.43h219.89l190.03 370.1 184.94-370.1h223.08v564.43h-152.53v-380.59l-190.03 380.59h-127.75L2428 1505.3v379.78zm1610.46 0h-173.5l-43.21-84.67h-334.3l-42.58 84.67h-173.5l286.63-564.43h193.84l286.62 564.43zm-477.92-229.81h188.12l-94.06-185.45-94.06 185.45zm823.04-181.42v411.23h-152.53v-411.23h-242.77v-153.2h637.44v153.2zm475.05 0v56.44h427.72v145.14h-427.72v56.45h467.13v153.2h-619.65v-564.43h619.65v153.2zm878.64 13.7l151.26-166.9h210.37l-256.13 283.02 256.13 281.41h-211.64l-149.99-165.3-149.98 165.3h-211.64l256.12-281.41-256.12-283.02h210.36z" fill="#2b2a29" fill-rule="nonzero"/><path d="M3392.55 358.54c710.71 0 1348.1 313.7 1781.44 810.12H4553.2c-191.67-211.96-542.5-439.72-814.78-531.7 225.87 97.43 579.57 336.05 710.47 531.7h-613.04C3573.83 827.55 3161.89 607.6 2698.5 607.6c-204.39 0-398.74 42.88-574.67 119.98 366.55-233.64 801.81-369.04 1268.72-369.04z" fill="#2b2a29"/><path d="M2873.48 105.25c306.48 0 599.89 55.76 870.83 157.46-115.62-16.54-233.77-25.27-353.96-25.27-783.51 0-1481.98 363.63-1936.22 931.22H838.5C1286.34 525.94 2030.73 105.25 2873.48 105.25zM1502.47 1604.47c0-38.7 4.35-75.66 13.03-110.87 8.68-35.2 22.79-66.26 42.27-93.13 19.48-26.86 44.81-48.25 75.94-64.1 31.13-15.85 69.38-23.79 114.71-23.79h209.69c44.48 0 82.41 8.07 113.76 24.19 31.35 16.13 56.98 37.63 76.9 64.51 19.92 26.88 34.42 57.92 43.53 93.13 9.11 35.21 13.67 71.9 13.67 110.06 0 38.17-4.56 74.73-13.67 109.66-9.11 34.95-23.61 65.72-43.53 92.33s-45.55 47.71-76.9 63.3c-31.35 15.59-69.29 23.38-113.76 23.38h-209.69c-45.31 0-83.58-7.81-114.71-23.38-31.13-15.59-56.46-36.57-75.94-62.89-19.48-26.34-33.59-57-42.27-91.93-8.68-34.93-13.03-71.76-13.03-110.47zm152.53-.8c0 18.27 1.81 35.76 5.4 52.41 3.59 16.66 10.29 31.46 20.02 44.35 9.74 12.9 22.89 23.12 39.41 30.64 16.51 7.52 37.92 11.29 64.18 11.29h139.14c25.42 0 46.61-3.77 63.56-11.29 16.93-7.52 30.29-17.74 40.03-30.64 9.75-12.9 16.63-27.69 20.66-44.35 4.03-16.66 6.04-34.14 6.04-52.41 0-18.28-2.01-35.75-6.04-52.42-4.03-16.66-10.91-31.44-20.66-44.34-9.74-12.9-23.1-23.26-40.03-31.04-16.95-7.79-38.16-11.7-63.56-11.7h-139.14c-26.24 0-47.67 3.77-64.18 11.29-16.52 7.53-29.67 17.74-39.41 30.64-9.73 12.89-16.43 27.83-20.02 44.76-3.59 16.92-5.4 34.53-5.4 52.81zm-666.52-129.82v56.44h427.72v145.14H988.48v56.45h467.13v153.2H835.96v-564.43h619.65v153.2H988.48zm-603.37 89.5h365.44v321.73H644.41l-29.87-66.12c-1.69 5.37-4.87 12.23-9.53 20.56-4.66 8.33-11.66 16.53-20.98 24.59-9.31 8.07-21.28 14.92-35.9 20.56-14.62 5.65-32.73 8.47-54.34 8.47H305.04c-45.34 0-83.58-7.53-114.72-22.57-31.14-15.06-56.46-35.48-75.95-61.28-19.49-25.81-33.58-55.91-42.26-90.31-8.69-34.41-13.03-70.96-13.03-109.67 0-38.7 4.34-75.93 13.03-111.67 8.68-35.75 22.77-67.33 42.26-94.75s44.81-49.32 75.95-65.71c31.14-16.4 69.38-24.6 114.72-24.6h202.09c35.6 0 67.27 5.51 95.02 16.53 27.75 11.02 51.48 25.8 71.18 44.35 19.7 18.55 35.59 40.45 47.66 65.71 12.08 25.27 20.66 51.88 25.74 79.84H582.77c-5.93-16.67-18.54-29.98-37.82-39.92-19.28-9.94-43.54-14.92-72.77-14.92H340.63c-26.27 0-47.67 4.04-64.19 12.1-16.53 8.06-29.66 18.81-39.41 32.25-9.74 13.44-16.42 28.89-20.02 46.36-3.6 17.48-5.4 35.35-5.4 53.63s1.8 35.61 5.4 52c3.6 16.4 10.28 30.65 20.02 42.74 9.75 12.1 22.88 21.64 39.41 28.63 16.52 6.98 37.92 10.48 64.19 10.48h137.91c33.89 0 60.27-4.84 79.12-14.52 18.86-9.67 32.09-25.8 39.72-48.38H385.11v-116.11z" fill="#126b2c"/></svg>